<svg width="212" height="193" viewBox="0 0 212 193" fill="none" xmlns="http://www.w3.org/2000/svg">
<path d="M65.985 54.7034L57.3393 77.2H154.661L146.015 54.7034C144.524 50.8434 140.516 48.25 136.011 48.25H75.9887C71.4837 48.25 67.4756 50.8434 65.985 54.7034ZM34.3175 78.6475L45.9775 48.3405C50.4493 36.7303 62.4737 28.95 75.9887 28.95H136.011C149.526 28.95 161.551 36.7303 166.022 48.3405L177.682 78.6475C185.367 81.5425 190.8 88.4483 190.8 96.5V154.4C190.8 159.738 186.063 164.05 180.2 164.05H169.6C163.737 164.05 159 159.738 159 154.4V144.75H53V154.4C53 159.738 48.2631 164.05 42.4 164.05H31.8C25.9368 164.05 21.2 159.738 21.2 154.4V96.5C21.2 88.4483 26.6325 81.5425 34.3175 78.6475ZM63.6 110.975C63.6 105.637 58.8631 101.325 53 101.325C47.1368 101.325 42.4 105.637 42.4 110.975C42.4 116.313 47.1368 120.625 53 120.625C58.8631 120.625 63.6 116.313 63.6 110.975ZM159 120.625C164.863 120.625 169.6 116.313 169.6 110.975C169.6 105.637 164.863 101.325 159 101.325C153.137 101.325 148.4 105.637 148.4 110.975C148.4 116.313 153.137 120.625 159 120.625Z" fill="#FFEC78"/>
</svg>
