<svg width="45" height="62" viewBox="0 0 45 62" fill="none" xmlns="http://www.w3.org/2000/svg">
<path d="M22.05 0.0120311C20.7408 0.0120311 19.6875 1.29937 19.6875 2.89953V4.06656C11.6747 5.46219 5.5125 13.8961 5.5125 24.0745V25.8191C5.5125 30.3548 4.52812 34.8064 2.65781 38.7286L0.502031 43.2283C0.177187 43.9261 0 44.7081 0 45.5142C0 48.0288 1.66359 50.062 3.72094 50.062H40.3791C42.4364 50.062 44.1 48.0288 44.1 45.5142C44.1 44.7081 43.9228 43.9141 43.598 43.2283L41.4422 38.7166C39.5719 34.7944 38.5875 30.3428 38.5875 25.807V24.0625C38.5875 13.8841 32.4253 5.45016 24.4125 4.05453V2.8875C24.4125 1.28734 23.3592 0 22.05 0V0.0120311ZM38.6269 44.287H5.46328L6.73312 41.6281C9.02672 36.8277 10.2375 31.3655 10.2375 25.8191V24.0745C10.2375 16.0978 15.5236 9.63703 22.05 9.63703C28.5764 9.63703 33.8625 16.0978 33.8625 24.0745V25.8191C33.8625 31.3775 35.0733 36.8277 37.357 41.6281L38.6269 44.287ZM15.3661 55.837C16.3406 59.2058 18.9689 61.612 22.05 61.612C25.1311 61.612 27.7594 59.2058 28.7339 55.837H15.3661Z" fill="currentColor"/>
</svg>
