<svg width="69" height="53" viewBox="0 0 69 53" fill="none" xmlns="http://www.w3.org/2000/svg">
<path d="M15.8377 8.75391L12.6248 18.75H25.875V7.5H17.4764C16.7433 7.5 16.0856 8.00391 15.8484 8.75391H15.8377ZM5.22891 18.9727L9.315 6.28125C10.5333 2.51953 13.8 0 17.4656 0H38.8017C41.5186 0 44.0737 1.39453 45.7017 3.75L56.0733 18.7852C63.2859 19.2773 68.9892 25.793 68.9892 33.75V35.625C68.9892 39.7617 65.895 43.125 62.0892 43.125H60.3211C59.8898 48.3867 55.8253 52.5 50.8767 52.5C45.9281 52.5 41.8636 48.3867 41.4323 43.125H25.8319C25.4006 48.3867 21.3361 52.5 16.3875 52.5C11.4389 52.5 7.37437 48.3867 6.94312 43.125H6.9C3.09422 43.125 0 39.7617 0 35.625V26.25C0 22.7227 2.23172 19.7695 5.23969 18.9727H5.22891ZM47.4267 18.75L40.1817 8.25C39.8583 7.78125 39.3408 7.5 38.8017 7.5H31.0392V18.75H47.4267ZM16.3767 46.875C18.7594 46.875 20.6892 44.7773 20.6892 42.1875C20.6892 39.5977 18.7594 37.5 16.3767 37.5C13.9941 37.5 12.0642 39.5977 12.0642 42.1875C12.0642 44.7773 13.9941 46.875 16.3767 46.875ZM55.1892 42.1875C55.1892 39.5977 53.2594 37.5 50.8767 37.5C48.4941 37.5 46.5642 39.5977 46.5642 42.1875C46.5642 44.7773 48.4941 46.875 50.8767 46.875C53.2594 46.875 55.1892 44.7773 55.1892 42.1875Z" fill="currentColor"/>
</svg>
