<svg width="65" height="80" viewBox="0 0 65 80" fill="none" xmlns="http://www.w3.org/2000/svg">
<path d="M32.5 72C18.1391 72 6.5 57.675 6.5 40C6.5 22.325 18.1391 8 32.5 8C46.8609 8 58.5 22.325 58.5 40C58.5 57.675 46.8609 72 32.5 72ZM32.5 14C20.8305 14 11.375 25.6375 11.375 40C11.375 54.3625 20.8305 66 32.5 66C44.1695 66 53.625 54.3625 53.625 40C53.625 25.6375 44.1695 14 32.5 14ZM39.6805 29.2375C40.4727 27.9 41.9961 27.6 43.0828 28.575C44.1695 29.55 44.4133 31.425 43.6211 32.7625L31.2203 53.7625C30.8039 54.475 30.1539 54.925 29.443 54.9875C28.732 55.05 28.0312 54.7375 27.5336 54.125L21.8562 47.1375C20.9016 45.9625 20.9016 44.0625 21.8562 42.9C22.8109 41.7375 24.3547 41.725 25.2992 42.9L28.9555 47.4L39.6805 29.25V29.2375Z" fill="currentColor"/>
</svg>
