<svg width="69" height="73" viewBox="0 0 69 73" fill="none" xmlns="http://www.w3.org/2000/svg">
<path d="M56.9249 36.5008C56.9249 49.6066 46.8876 60.2258 34.4999 60.2258C22.1122 60.2258 12.0749 49.6066 12.0749 36.5008C12.0749 23.395 22.1122 12.7758 34.4999 12.7758C46.8876 12.7758 56.9249 23.395 56.9249 36.5008ZM6.8999 36.5008C6.8999 52.6292 19.2552 65.7008 34.4999 65.7008C49.7446 65.7008 62.0999 52.6292 62.0999 36.5008C62.0999 20.3723 49.7446 7.30078 34.4999 7.30078C19.2552 7.30078 6.8999 20.3723 6.8999 36.5008ZM31.9124 20.9883V36.5008C31.9124 37.4133 32.3437 38.2688 33.066 38.782L43.416 46.082C44.6019 46.9261 46.2083 46.5839 47.0061 45.3178C47.804 44.0517 47.4805 42.3636 46.2838 41.5195L37.0874 35.0408V20.9883C37.0874 19.4713 35.9338 18.2508 34.4999 18.2508C33.066 18.2508 31.9124 19.4713 31.9124 20.9883Z" fill="currentColor"/>
</svg>
