<svg width="52" height="51" viewBox="0 0 52 51" fill="none" xmlns="http://www.w3.org/2000/svg">
<path d="M40.9987 11.8335C41.9168 10.7497 41.7705 9.14005 40.6655 8.23958C39.5605 7.33911 37.9193 7.48255 37.0012 8.5663L25.9999 21.5155L14.9987 8.5663C14.0805 7.48255 12.4393 7.33911 11.3343 8.23958C10.2293 9.14005 10.083 10.7497 11.0012 11.8335L22.6118 25.4999L11.0012 39.1663C10.083 40.25 10.2293 41.8597 11.3343 42.7602C12.4393 43.6607 14.0805 43.5172 14.9987 42.4335L25.9999 29.4843L37.0012 42.4335C37.9193 43.5172 39.5605 43.6607 40.6655 42.7602C41.7705 41.8597 41.9168 40.25 40.9987 39.1663L29.3881 25.4999L40.9987 11.8335Z" fill="#93A3B6"/>
</svg>
