<svg width="60" height="65" viewBox="0 0 60 65" fill="none" xmlns="http://www.w3.org/2000/svg">
<path d="M20.25 6.5C21.4969 6.5 22.5 7.58672 22.5 8.9375V13H37.5V8.9375C37.5 7.58672 38.5031 6.5 39.75 6.5C40.9969 6.5 42 7.58672 42 8.9375V13H45C48.3094 13 51 15.9148 51 19.5V48.75C51 52.3352 48.3094 55.25 45 55.25H15C11.6906 55.25 9 52.3352 9 48.75V19.5C9 15.9148 11.6906 13 15 13H18V8.9375C18 7.58672 19.0031 6.5 20.25 6.5ZM20.25 17.875H15C14.175 17.875 13.5 18.6062 13.5 19.5V24.375H46.5V19.5C46.5 18.6062 45.825 17.875 45 17.875H20.25ZM13.5 29.25V48.75C13.5 49.6437 14.175 50.375 15 50.375H45C45.825 50.375 46.5 49.6437 46.5 48.75V29.25H13.5Z" fill="#93A3B6"/>
</svg>
