<svg width="76" height="78" viewBox="0 0 76 78" fill="none" xmlns="http://www.w3.org/2000/svg">
<path d="M41.8004 11.7008C41.8004 9.54359 40.1023 7.80078 38.0004 7.80078C35.8985 7.80078 34.2004 9.54359 34.2004 11.7008V37.3798L29.2841 32.3342C27.7998 30.8108 25.3891 30.8108 23.9048 32.3342C22.4204 33.8577 22.4204 36.3317 23.9048 37.8552L35.3048 49.5552C36.7891 51.0786 39.1998 51.0786 40.6841 49.5552L52.0841 37.8552C53.5685 36.3317 53.5685 33.8577 52.0841 32.3342C50.5998 30.8108 48.1891 30.8108 46.7048 32.3342L41.8004 37.3798V11.7008ZM19.0004 46.8008C14.8085 46.8008 11.4004 50.2986 11.4004 54.6008V58.5008C11.4004 62.803 14.8085 66.3008 19.0004 66.3008H57.0004C61.1923 66.3008 64.6004 62.803 64.6004 58.5008V54.6008C64.6004 50.2986 61.1923 46.8008 57.0004 46.8008H51.431L44.7098 53.6989C41.0048 57.5014 34.9841 57.5014 31.2791 53.6989L24.5698 46.8008H19.0004ZM55.1004 53.6258C56.6798 53.6258 57.9504 54.9298 57.9504 56.5508C57.9504 58.1717 56.6798 59.4758 55.1004 59.4758C53.521 59.4758 52.2504 58.1717 52.2504 56.5508C52.2504 54.9298 53.521 53.6258 55.1004 53.6258Z" fill="#1E1633"/>
</svg>
