<svg width="62" height="59" viewBox="0 0 62 59" fill="none" xmlns="http://www.w3.org/2000/svg">
<path d="M48.9221 11.3297L50.0943 12.4452C51.0049 13.3118 51.0049 14.713 50.0943 15.5703L47.2752 18.2622L42.8093 14.0124L45.6283 11.3297C46.5389 10.4632 48.0114 10.4632 48.9124 11.3297H48.9221ZM26.5246 29.5183L39.5252 17.1375L43.9911 21.3874L30.9808 33.7589C30.6999 34.0263 30.3511 34.2199 29.9733 34.3213L24.3061 35.8608L25.9239 30.4679C26.0305 30.1083 26.2339 29.7764 26.5149 29.5091L26.5246 29.5183ZM42.3443 8.20457L23.2308 26.3839C22.388 27.186 21.7777 28.1724 21.458 29.251L18.6874 38.4697C18.4549 39.2441 18.6777 40.0738 19.2783 40.6454C19.8789 41.2169 20.7508 41.4289 21.5646 41.2077L31.2521 38.5711C32.3952 38.2577 33.4318 37.6769 34.2649 36.8841L53.3783 18.7047C56.1005 16.1143 56.1005 11.9105 53.3783 9.32004L52.2061 8.20457C49.4839 5.6141 45.0664 5.6141 42.3443 8.20457ZM14.7252 11.7999C10.0171 11.7999 6.2002 15.4321 6.2002 19.9124V44.9874C6.2002 49.4677 10.0171 53.0999 14.7252 53.0999H41.0752C45.7833 53.0999 49.6002 49.4677 49.6002 44.9874V34.6624C49.6002 33.4363 48.5636 32.4499 47.2752 32.4499C45.9868 32.4499 44.9502 33.4363 44.9502 34.6624V44.9874C44.9502 47.0247 43.2161 48.6749 41.0752 48.6749H14.7252C12.5843 48.6749 10.8502 47.0247 10.8502 44.9874V19.9124C10.8502 17.875 12.5843 16.2249 14.7252 16.2249H25.5752C26.8636 16.2249 27.9002 15.2385 27.9002 14.0124C27.9002 12.7863 26.8636 11.7999 25.5752 11.7999H14.7252Z" fill="currentColor"/>
</svg>
