<svg width="58" height="63" viewBox="0 0 58 63" fill="none" xmlns="http://www.w3.org/2000/svg">
<path d="M22.0318 2.95312C22.3732 1.23915 23.8641 0 25.594 0H32.3996C34.1295 0 35.6204 1.23915 35.9618 2.95312L37.612 11.0597C39.2166 11.7546 40.7189 12.6463 42.0846 13.7002L49.8007 11.0945C51.4395 10.5386 53.2376 11.2335 54.1026 12.7621L57.5054 18.761C58.3703 20.2897 58.063 22.2121 56.7656 23.3818L50.6997 28.8711C50.8022 29.7281 50.8477 30.6083 50.8477 31.5C50.8477 32.3917 50.7908 33.2719 50.6997 34.1289L56.777 39.6298C58.0744 40.7994 58.3703 42.7335 57.5168 44.2506L54.114 50.2494C53.249 51.7665 51.4509 52.473 49.8121 51.9171L42.096 49.3114C40.7189 50.3653 39.2166 51.2454 37.6234 51.9518L35.9845 60.0469C35.6317 61.7724 34.1409 63 32.4224 63H25.6167C23.8869 63 22.396 61.7608 22.0546 60.0469L20.4158 51.9518C18.8111 51.257 17.3202 50.3653 15.9432 49.3114L8.19293 51.9171C6.55411 52.473 4.75596 51.7781 3.89103 50.2494L0.488212 44.2506C-0.376719 42.7219 -0.0694407 40.7994 1.22796 39.6298L7.30523 34.1289C7.20281 33.2719 7.15729 32.3917 7.15729 31.5C7.15729 30.6083 7.21419 29.7281 7.30523 28.8711L1.22796 23.3702C-0.0694407 22.2006 -0.365338 20.2665 0.488212 18.7494L3.89103 12.7506C4.75596 11.2219 6.55411 10.527 8.19293 11.0829L15.909 13.6886C17.2861 12.6347 18.7883 11.7546 20.3816 11.0482L22.0318 2.95312ZM28.9968 40.7647C34.0271 40.7415 38.09 36.584 38.0672 31.4653C38.0444 26.3465 33.9588 22.2121 28.9285 22.2353C23.8983 22.2585 19.8354 26.416 19.8581 31.5347C19.8809 36.6535 23.9665 40.7879 28.9968 40.7647Z" fill="currentColor"/>
</svg>
