<svg width="60" height="60" viewBox="0 0 60 60" fill="none" xmlns="http://www.w3.org/2000/svg">
<path d="M27.7694 0.720653C28.8217 -0.240218 30.4174 -0.240218 31.4697 0.720653L58.2968 25.094C59.4416 26.1252 59.5341 27.9063 58.505 29.0664C57.4758 30.2264 55.7297 30.3202 54.585 29.2773L53.6599 28.4336V52.4905C53.6599 56.6269 50.3412 59.99 46.2593 59.99H12.9567C8.8748 59.99 5.5561 56.6269 5.5561 52.4905V28.4336L4.63103 29.2773C3.48625 30.3085 1.74018 30.2147 0.711035 29.0664C-0.318109 27.918 -0.214038 26.1369 0.919176 25.094L27.7694 0.720653ZM29.6196 6.59134L11.1181 23.4066V52.5022C11.1181 53.5334 11.9507 54.3771 12.9682 54.3771H18.5187V42.1904C18.5187 37.5267 22.2421 33.7535 26.8443 33.7535H32.3948C36.997 33.7535 40.7204 37.5267 40.7204 42.1904V54.3771H46.2709C47.2885 54.3771 48.121 53.5334 48.121 52.5022V23.4066L29.6196 6.60306V6.59134ZM24.0691 54.3771H35.17V42.1904C35.17 40.632 33.9327 39.3781 32.3948 39.3781H26.8443C25.3064 39.3781 24.0691 40.632 24.0691 42.1904V54.3771Z" fill="currentColor"/>
</svg>
