<svg width="69" height="79" viewBox="0 0 69 79" fill="none" xmlns="http://www.w3.org/2000/svg">
<path d="M30.1876 9.875C28.7537 9.875 27.6001 11.1958 27.6001 12.8375C27.6001 14.4792 28.7537 15.8 30.1876 15.8H36.2898L38.7156 21.8114L28.4626 30.6125C24.8617 27.5142 20.3767 25.675 15.5251 25.675H9.4876C8.05369 25.675 6.9001 26.9958 6.9001 28.6375C6.9001 30.2792 8.05369 31.6 9.4876 31.6H15.5251C23.9884 31.6 30.9638 38.9569 31.8263 48.3875H29.0879C27.8804 41.08 22.2634 35.55 15.5251 35.55C7.90275 35.55 1.7251 42.623 1.7251 51.35C1.7251 60.077 7.90275 67.15 15.5251 67.15C22.2634 67.15 27.8696 61.62 29.0879 54.3125H34.5001C35.934 54.3125 37.0876 52.9917 37.0876 51.35V48.5727C37.0876 43.0056 39.8584 38.0311 44.1493 35.2784L45.4538 38.5002C41.9607 41.3639 39.6859 46.0545 39.6859 51.35C39.6859 60.077 45.8635 67.15 53.4859 67.15C61.1082 67.15 67.2859 60.077 67.2859 51.35C67.2859 42.623 61.1082 35.55 53.4859 35.55C52.3323 35.55 51.2218 35.7105 50.1545 36.0191L46.7692 27.65H52.6126C54.0465 27.65 55.2001 26.3292 55.2001 24.6875V18.7625C55.2001 17.1208 54.0465 15.8 52.6126 15.8H46.8662C46.1223 15.8 45.3892 16.0716 44.7962 16.59L42.9526 18.17L40.3004 11.5908C39.8799 10.5416 38.9635 9.875 37.9501 9.875H30.1876ZM48.0629 44.9806L51.1248 52.5844C51.7285 54.0656 53.2595 54.7198 54.5532 54.0286C55.847 53.3373 56.4184 51.5845 55.8146 50.1033L52.742 42.4995C52.9792 42.4748 53.2163 42.4625 53.4643 42.4625C57.7552 42.4625 61.2268 46.4372 61.2268 51.35C61.2268 56.2628 57.7552 60.2375 53.4643 60.2375C49.1734 60.2375 45.7018 56.2628 45.7018 51.35C45.7018 48.8566 46.5967 46.5977 48.0521 44.9806H48.0629ZM15.5251 60.2375C11.2342 60.2375 7.7626 56.2628 7.7626 51.35C7.7626 46.4372 11.2342 42.4625 15.5251 42.4625C18.8996 42.4625 21.7782 44.9313 22.8456 48.3875H15.5251C14.0912 48.3875 12.9376 49.7083 12.9376 51.35C12.9376 52.9917 14.0912 54.3125 15.5251 54.3125H22.8456C21.7782 57.7687 18.8996 60.2375 15.5251 60.2375Z" fill="currentColor"/>
</svg>
