<svg width="53" height="56" viewBox="0 0 53 56" fill="none" xmlns="http://www.w3.org/2000/svg">
<path d="M29.1502 11.2004C29.1502 9.65164 27.966 8.40039 26.5002 8.40039C25.0344 8.40039 23.8502 9.65164 23.8502 11.2004V25.2004H10.6002C9.13441 25.2004 7.9502 26.4516 7.9502 28.0004C7.9502 29.5491 9.13441 30.8004 10.6002 30.8004H23.8502V44.8004C23.8502 46.3491 25.0344 47.6004 26.5002 47.6004C27.966 47.6004 29.1502 46.3491 29.1502 44.8004V30.8004H42.4002C43.866 30.8004 45.0502 29.5491 45.0502 28.0004C45.0502 26.4516 43.866 25.2004 42.4002 25.2004H29.1502V11.2004Z" fill="currentColor"/>
</svg>
