<svg width="76" height="78" viewBox="0 0 76 78" fill="none" xmlns="http://www.w3.org/2000/svg">
<path d="M13.6163 14.6244C13.6163 11.0083 16.3144 8.06836 19.6329 8.06836H39.7042C41.3023 8.06836 42.8347 8.75469 43.9628 9.98395L47.9583 14.3376C49.0864 15.5668 49.7163 17.2366 49.7163 18.978V22.8194H13.6163V14.6244ZM7.59961 34.2925C7.59961 30.6764 10.2977 27.7365 13.6163 27.7365H49.7163C53.0348 27.7365 55.7329 30.6764 55.7329 34.2925V44.1265C55.7329 45.9397 54.3886 47.4046 52.7246 47.4046H49.7163V53.9606C49.7163 57.5767 47.0182 60.5166 43.6996 60.5166H19.6329C16.3144 60.5166 13.6163 57.5767 13.6163 53.9606V47.4046H10.6079C8.94396 47.4046 7.59961 45.9397 7.59961 44.1265V34.2925ZM19.6329 50.6826V53.9606H43.6996V44.1265H19.6329V50.6826ZM50.4684 35.9315C50.4684 34.5691 49.4624 33.473 48.2121 33.473C46.9618 33.473 45.9559 34.5691 45.9559 35.9315C45.9559 37.2939 46.9618 38.39 48.2121 38.39C49.4624 38.39 50.4684 37.2939 50.4684 35.9315Z" fill="#1E1633"/>
</svg>
