<svg width="448" height="666" viewBox="0 0 448 666" fill="none" xmlns="http://www.w3.org/2000/svg">
<path d="M64 190.286H128V95.1429H64V190.286ZM0 71.3571C0 31.9621 21.5 0 48 0H144C170.5 0 192 31.9621 192 71.3571V214.071C192 253.467 170.5 285.429 144 285.429H48C21.5 285.429 0 253.467 0 214.071V71.3571ZM64 570.857H128V475.714H64V570.857ZM0 451.929C0 412.533 21.5 380.571 48 380.571H144C170.5 380.571 192 412.533 192 451.929V594.643C192 634.038 170.5 666 144 666H48C21.5 666 0 634.038 0 594.643V451.929ZM320 95.1429V190.286H384V95.1429H320ZM304 0H400C426.5 0 448 31.9621 448 71.3571V214.071C448 253.467 426.5 285.429 400 285.429H304C277.5 285.429 256 253.467 256 214.071V71.3571C256 31.9621 277.5 0 304 0ZM288 475.714C270.3 475.714 256 454.456 256 428.143C256 401.83 270.3 380.571 288 380.571C305.7 380.571 320 401.83 320 428.143C320 454.456 305.7 475.714 288 475.714ZM288 570.857C305.7 570.857 320 592.116 320 618.429C320 644.742 305.7 666 288 666C270.3 666 256 644.742 256 618.429C256 592.116 270.3 570.857 288 570.857ZM384 618.429C384 592.116 398.3 570.857 416 570.857C433.7 570.857 448 592.116 448 618.429C448 644.742 433.7 666 416 666C398.3 666 384 644.742 384 618.429ZM416 475.714C398.3 475.714 384 454.456 384 428.143C384 401.83 398.3 380.571 416 380.571C433.7 380.571 448 401.83 448 428.143C448 454.456 433.7 475.714 416 475.714ZM384 523.286C384 549.599 369.7 570.857 352 570.857C334.3 570.857 320 549.599 320 523.286C320 496.973 334.3 475.714 352 475.714C369.7 475.714 384 496.973 384 523.286Z" fill="black"/>
</svg>

