<svg width="46" height="54" viewBox="0 0 46 54" fill="none" xmlns="http://www.w3.org/2000/svg">
<path d="M6.5 15.2H13V7.6H6.5V15.2ZM0 5.7C0 2.55312 2.18359 0 4.875 0H14.625C17.3164 0 19.5 2.55312 19.5 5.7V17.1C19.5 20.2469 17.3164 22.8 14.625 22.8H4.875C2.18359 22.8 0 20.2469 0 17.1V5.7ZM6.5 45.6H13V38H6.5V45.6ZM0 36.1C0 32.9531 2.18359 30.4 4.875 30.4H14.625C17.3164 30.4 19.5 32.9531 19.5 36.1V47.5C19.5 50.6469 17.3164 53.2 14.625 53.2H4.875C2.18359 53.2 0 50.6469 0 47.5V36.1ZM32.5 7.6V15.2H39V7.6H32.5ZM30.875 0H40.625C43.3164 0 45.5 2.55312 45.5 5.7V17.1C45.5 20.2469 43.3164 22.8 40.625 22.8H30.875C28.1836 22.8 26 20.2469 26 17.1V5.7C26 2.55312 28.1836 0 30.875 0ZM29.25 38C27.4523 38 26 36.3019 26 34.2C26 32.0981 27.4523 30.4 29.25 30.4C31.0477 30.4 32.5 32.0981 32.5 34.2C32.5 36.3019 31.0477 38 29.25 38ZM29.25 45.6C31.0477 45.6 32.5 47.2981 32.5 49.4C32.5 51.5019 31.0477 53.2 29.25 53.2C27.4523 53.2 26 51.5019 26 49.4C26 47.2981 27.4523 45.6 29.25 45.6ZM39 49.4C39 47.2981 40.4523 45.6 42.25 45.6C44.0477 45.6 45.5 47.2981 45.5 49.4C45.5 51.5019 44.0477 53.2 42.25 53.2C40.4523 53.2 39 51.5019 39 49.4ZM42.25 38C40.4523 38 39 36.3019 39 34.2C39 32.0981 40.4523 30.4 42.25 30.4C44.0477 30.4 45.5 32.0981 45.5 34.2C45.5 36.3019 44.0477 38 42.25 38ZM39 41.8C39 43.9019 37.5477 45.6 35.75 45.6C33.9523 45.6 32.5 43.9019 32.5 41.8C32.5 39.6981 33.9523 38 35.75 38C37.5477 38 39 39.6981 39 41.8Z" fill="currentColor"/>
</svg>
