<svg width="62" height="59" viewBox="0 0 62 59" fill="none" xmlns="http://www.w3.org/2000/svg">
<path d="M25.4004 4.42578C24.112 4.42578 22.9495 5.19094 22.4942 6.34328L20.9248 10.3258H11.6248C10.3364 10.3258 9.2998 11.3122 9.2998 12.5383C9.2998 13.7644 10.3364 14.7508 11.6248 14.7508H50.3748C51.6632 14.7508 52.6998 13.7644 52.6998 12.5383C52.6998 11.3122 51.6632 10.3258 50.3748 10.3258H41.0748L39.5054 6.34328C39.0501 5.19094 37.8973 4.42578 36.5992 4.42578H25.4004ZM12.3998 19.1758V47.2008C12.3998 50.455 15.1801 53.1008 18.5998 53.1008H43.3998C46.8195 53.1008 49.5998 50.455 49.5998 47.2008V19.1758H44.9498V47.2008C44.9498 48.012 44.2523 48.6758 43.3998 48.6758H18.5998C17.7473 48.6758 17.0498 48.012 17.0498 47.2008V19.1758H12.3998ZM27.8998 25.8133C27.8998 24.5872 26.8632 23.6008 25.5748 23.6008C24.2864 23.6008 23.2498 24.5872 23.2498 25.8133V42.0383C23.2498 43.2644 24.2864 44.2508 25.5748 44.2508C26.8632 44.2508 27.8998 43.2644 27.8998 42.0383V25.8133ZM38.7498 25.8133C38.7498 24.5872 37.7132 23.6008 36.4248 23.6008C35.1364 23.6008 34.0998 24.5872 34.0998 25.8133V42.0383C34.0998 43.2644 35.1364 44.2508 36.4248 44.2508C37.7132 44.2508 38.7498 43.2644 38.7498 42.0383V25.8133Z" fill="currentColor"/>
</svg>
