<svg width="56" height="61" viewBox="0 0 56 61" fill="none" xmlns="http://www.w3.org/2000/svg">
<path d="M28.8485 7.625C40.0909 7.625 49.2121 17.8711 49.2121 30.5C49.2121 43.1289 40.0909 53.375 28.8485 53.375C21.9333 53.375 15.8136 49.5029 12.1333 43.5697C11.0621 41.8422 8.94091 41.4252 7.40303 42.6285C5.86515 43.8318 5.49394 46.2146 6.56515 47.9422C11.4652 55.8293 19.6212 61 28.8485 61C43.8455 61 56 47.3465 56 30.5C56 13.6535 43.8455 0 28.8485 0C19.7591 0 11.7197 5.01582 6.78788 12.7123V9.53125C6.78788 7.42246 5.27121 5.71875 3.39394 5.71875C1.51667 5.71875 0 7.42246 0 9.53125V22.875C0 24.9838 1.51667 26.6875 3.39394 26.6875H6.00303C6.05606 26.6875 6.10909 26.6875 6.16212 26.6875H15.2833C17.1606 26.6875 18.6773 24.9838 18.6773 22.875C18.6773 20.7662 17.1606 19.0625 15.2833 19.0625H11.2212C14.7318 12.2238 21.3182 7.625 28.8485 7.625ZM31.3939 18.1094C31.3939 16.5248 30.2591 15.25 28.8485 15.25C27.4379 15.25 26.303 16.5248 26.303 18.1094V30.5C26.303 31.2625 26.5682 31.9893 27.0455 32.5254L34.6818 41.1035C35.6788 42.2234 37.2909 42.2234 38.2773 41.1035C39.2636 39.9836 39.2742 38.1727 38.2773 37.0646L31.3833 29.3205V18.1094H31.3939Z" fill="currentColor"/>
</svg>
